<mxfile host="app.diagrams.net" modified="2023-09-20T10:37:26.913Z" agent="Mozilla/5.0 (Windows NT 10.0; Win64; x64) AppleWebKit/537.36 (KHTML, like Gecko) Chrome/116.0.0.0 Safari/537.36" etag="AFyU6SiYNPQOcZiigb-d" version="21.7.5" type="device">
  <diagram id="R2lEEEUBdFMjLlhIrx00" name="Page-1">
    <mxGraphModel dx="2284" dy="2958" grid="1" gridSize="10" guides="1" tooltips="1" connect="1" arrows="1" fold="1" page="1" pageScale="1" pageWidth="850" pageHeight="1100" math="0" shadow="0" extFonts="Permanent Marker^https://fonts.googleapis.com/css?family=Permanent+Marker">
      <root>
        <mxCell id="0" />
        <mxCell id="1" parent="0" />
        <mxCell id="fmhWpOc4DuvUItG6NyJw-37" value="products" style="shape=table;startSize=30;container=1;collapsible=1;childLayout=tableLayout;fixedRows=1;rowLines=0;fontStyle=1;align=center;resizeLast=1;" parent="1" vertex="1">
          <mxGeometry x="290" y="-730" width="250" height="290" as="geometry" />
        </mxCell>
        <mxCell id="fmhWpOc4DuvUItG6NyJw-38" value="" style="shape=partialRectangle;collapsible=0;dropTarget=0;pointerEvents=0;fillColor=none;points=[[0,0.5],[1,0.5]];portConstraint=eastwest;top=0;left=0;right=0;bottom=1;" parent="fmhWpOc4DuvUItG6NyJw-37" vertex="1">
          <mxGeometry y="30" width="250" height="30" as="geometry" />
        </mxCell>
        <mxCell id="fmhWpOc4DuvUItG6NyJw-39" value="PK" style="shape=partialRectangle;overflow=hidden;connectable=0;fillColor=none;top=0;left=0;bottom=0;right=0;fontStyle=1;" parent="fmhWpOc4DuvUItG6NyJw-38" vertex="1">
          <mxGeometry width="30" height="30" as="geometry">
            <mxRectangle width="30" height="30" as="alternateBounds" />
          </mxGeometry>
        </mxCell>
        <mxCell id="fmhWpOc4DuvUItG6NyJw-40" value="id bigInt" style="shape=partialRectangle;overflow=hidden;connectable=0;fillColor=none;top=0;left=0;bottom=0;right=0;align=left;spacingLeft=6;fontStyle=5;" parent="fmhWpOc4DuvUItG6NyJw-38" vertex="1">
          <mxGeometry x="30" width="220" height="30" as="geometry">
            <mxRectangle width="220" height="30" as="alternateBounds" />
          </mxGeometry>
        </mxCell>
        <mxCell id="fmhWpOc4DuvUItG6NyJw-41" value="" style="shape=partialRectangle;collapsible=0;dropTarget=0;pointerEvents=0;fillColor=none;points=[[0,0.5],[1,0.5]];portConstraint=eastwest;top=0;left=0;right=0;bottom=0;" parent="fmhWpOc4DuvUItG6NyJw-37" vertex="1">
          <mxGeometry y="60" width="250" height="230" as="geometry" />
        </mxCell>
        <mxCell id="fmhWpOc4DuvUItG6NyJw-42" value="" style="shape=partialRectangle;overflow=hidden;connectable=0;fillColor=none;top=0;left=0;bottom=0;right=0;" parent="fmhWpOc4DuvUItG6NyJw-41" vertex="1">
          <mxGeometry width="30" height="230" as="geometry">
            <mxRectangle width="30" height="230" as="alternateBounds" />
          </mxGeometry>
        </mxCell>
        <mxCell id="fmhWpOc4DuvUItG6NyJw-43" value="created_at timestamp&#xa;modified_at timestamp&#xa;available bool&#xa;description text&#xa;discontinued bool&#xa;display_name varchar(255)&#xa;image_url text&#xa;manufacturer varchar(255)&#xa;name varchar(255)&#xa;original_id varchar(255)&#xa;original_url text&#xa;price_mkd float&#xa;slug varchar(255)&#xa;category_id bigInt&#xa;compatibility_attributes_id bigInt&#xa;store_id bigInt" style="shape=partialRectangle;overflow=hidden;connectable=0;fillColor=none;top=0;left=0;bottom=0;right=0;align=left;spacingLeft=6;" parent="fmhWpOc4DuvUItG6NyJw-41" vertex="1">
          <mxGeometry x="30" width="220" height="230" as="geometry">
            <mxRectangle width="220" height="230" as="alternateBounds" />
          </mxGeometry>
        </mxCell>
        <mxCell id="-GQHMLsUSO3XCme52VV2-1" value="categories" style="shape=table;startSize=30;container=1;collapsible=1;childLayout=tableLayout;fixedRows=1;rowLines=0;fontStyle=1;align=center;resizeLast=1;" vertex="1" parent="1">
          <mxGeometry x="-20" y="-360" width="250" height="150" as="geometry" />
        </mxCell>
        <mxCell id="-GQHMLsUSO3XCme52VV2-2" value="" style="shape=partialRectangle;collapsible=0;dropTarget=0;pointerEvents=0;fillColor=none;points=[[0,0.5],[1,0.5]];portConstraint=eastwest;top=0;left=0;right=0;bottom=1;" vertex="1" parent="-GQHMLsUSO3XCme52VV2-1">
          <mxGeometry y="30" width="250" height="30" as="geometry" />
        </mxCell>
        <mxCell id="-GQHMLsUSO3XCme52VV2-3" value="PK" style="shape=partialRectangle;overflow=hidden;connectable=0;fillColor=none;top=0;left=0;bottom=0;right=0;fontStyle=1;" vertex="1" parent="-GQHMLsUSO3XCme52VV2-2">
          <mxGeometry width="30" height="30" as="geometry">
            <mxRectangle width="30" height="30" as="alternateBounds" />
          </mxGeometry>
        </mxCell>
        <mxCell id="-GQHMLsUSO3XCme52VV2-4" value="id bigInt" style="shape=partialRectangle;overflow=hidden;connectable=0;fillColor=none;top=0;left=0;bottom=0;right=0;align=left;spacingLeft=6;fontStyle=5;" vertex="1" parent="-GQHMLsUSO3XCme52VV2-2">
          <mxGeometry x="30" width="220" height="30" as="geometry">
            <mxRectangle width="220" height="30" as="alternateBounds" />
          </mxGeometry>
        </mxCell>
        <mxCell id="-GQHMLsUSO3XCme52VV2-5" value="" style="shape=partialRectangle;collapsible=0;dropTarget=0;pointerEvents=0;fillColor=none;points=[[0,0.5],[1,0.5]];portConstraint=eastwest;top=0;left=0;right=0;bottom=0;" vertex="1" parent="-GQHMLsUSO3XCme52VV2-1">
          <mxGeometry y="60" width="250" height="90" as="geometry" />
        </mxCell>
        <mxCell id="-GQHMLsUSO3XCme52VV2-6" value="" style="shape=partialRectangle;overflow=hidden;connectable=0;fillColor=none;top=0;left=0;bottom=0;right=0;" vertex="1" parent="-GQHMLsUSO3XCme52VV2-5">
          <mxGeometry width="30" height="90" as="geometry">
            <mxRectangle width="30" height="90" as="alternateBounds" />
          </mxGeometry>
        </mxCell>
        <mxCell id="-GQHMLsUSO3XCme52VV2-7" value="created_at timestamp&#xa;modified_at timestamp&#xa;display_name varchar(255)&#xa;name varchar(255)&#xa;slug varchar(255)" style="shape=partialRectangle;overflow=hidden;connectable=0;fillColor=none;top=0;left=0;bottom=0;right=0;align=left;spacingLeft=6;" vertex="1" parent="-GQHMLsUSO3XCme52VV2-5">
          <mxGeometry x="30" width="220" height="90" as="geometry">
            <mxRectangle width="220" height="90" as="alternateBounds" />
          </mxGeometry>
        </mxCell>
        <mxCell id="-GQHMLsUSO3XCme52VV2-8" value="product_compatibility_attributes" style="shape=table;startSize=30;container=1;collapsible=1;childLayout=tableLayout;fixedRows=1;rowLines=0;fontStyle=1;align=center;resizeLast=1;" vertex="1" parent="1">
          <mxGeometry x="-20" y="-680" width="250" height="280" as="geometry" />
        </mxCell>
        <mxCell id="-GQHMLsUSO3XCme52VV2-9" value="" style="shape=partialRectangle;collapsible=0;dropTarget=0;pointerEvents=0;fillColor=none;points=[[0,0.5],[1,0.5]];portConstraint=eastwest;top=0;left=0;right=0;bottom=1;" vertex="1" parent="-GQHMLsUSO3XCme52VV2-8">
          <mxGeometry y="30" width="250" height="30" as="geometry" />
        </mxCell>
        <mxCell id="-GQHMLsUSO3XCme52VV2-10" value="PK" style="shape=partialRectangle;overflow=hidden;connectable=0;fillColor=none;top=0;left=0;bottom=0;right=0;fontStyle=1;" vertex="1" parent="-GQHMLsUSO3XCme52VV2-9">
          <mxGeometry width="30" height="30" as="geometry">
            <mxRectangle width="30" height="30" as="alternateBounds" />
          </mxGeometry>
        </mxCell>
        <mxCell id="-GQHMLsUSO3XCme52VV2-11" value="id bigInt" style="shape=partialRectangle;overflow=hidden;connectable=0;fillColor=none;top=0;left=0;bottom=0;right=0;align=left;spacingLeft=6;fontStyle=5;" vertex="1" parent="-GQHMLsUSO3XCme52VV2-9">
          <mxGeometry x="30" width="220" height="30" as="geometry">
            <mxRectangle width="220" height="30" as="alternateBounds" />
          </mxGeometry>
        </mxCell>
        <mxCell id="-GQHMLsUSO3XCme52VV2-12" value="" style="shape=partialRectangle;collapsible=0;dropTarget=0;pointerEvents=0;fillColor=none;points=[[0,0.5],[1,0.5]];portConstraint=eastwest;top=0;left=0;right=0;bottom=0;" vertex="1" parent="-GQHMLsUSO3XCme52VV2-8">
          <mxGeometry y="60" width="250" height="220" as="geometry" />
        </mxCell>
        <mxCell id="-GQHMLsUSO3XCme52VV2-13" value="" style="shape=partialRectangle;overflow=hidden;connectable=0;fillColor=none;top=0;left=0;bottom=0;right=0;" vertex="1" parent="-GQHMLsUSO3XCme52VV2-12">
          <mxGeometry width="30" height="220" as="geometry">
            <mxRectangle width="30" height="220" as="alternateBounds" />
          </mxGeometry>
        </mxCell>
        <mxCell id="-GQHMLsUSO3XCme52VV2-14" value="created_at timestamp&#xa;modified_at timestamp&#xa;chipset varchar(255)&#xa;form_factor varchar(255)&#xa;num_of25inch_bays int&#xa;num_of35inch_bays int&#xa;num_ofm2slots int&#xa;num_of_ram_slots int&#xa;num_of_sata_ports int&#xa;processor_code_name varchar(255)&#xa;processor_manufacturer varchar(255)&#xa;ram_speed varchar(255)&#xa;ram_type varchar(255)&#xa;socket varchar(255)&#xa;storage_type varchar(255)" style="shape=partialRectangle;overflow=hidden;connectable=0;fillColor=none;top=0;left=0;bottom=0;right=0;align=left;spacingLeft=6;" vertex="1" parent="-GQHMLsUSO3XCme52VV2-12">
          <mxGeometry x="30" width="220" height="220" as="geometry">
            <mxRectangle width="220" height="220" as="alternateBounds" />
          </mxGeometry>
        </mxCell>
        <mxCell id="-GQHMLsUSO3XCme52VV2-15" value="stores" style="shape=table;startSize=30;container=1;collapsible=1;childLayout=tableLayout;fixedRows=1;rowLines=0;fontStyle=1;align=center;resizeLast=1;" vertex="1" parent="1">
          <mxGeometry x="280" y="-360" width="250" height="160" as="geometry" />
        </mxCell>
        <mxCell id="-GQHMLsUSO3XCme52VV2-16" value="" style="shape=partialRectangle;collapsible=0;dropTarget=0;pointerEvents=0;fillColor=none;points=[[0,0.5],[1,0.5]];portConstraint=eastwest;top=0;left=0;right=0;bottom=1;" vertex="1" parent="-GQHMLsUSO3XCme52VV2-15">
          <mxGeometry y="30" width="250" height="30" as="geometry" />
        </mxCell>
        <mxCell id="-GQHMLsUSO3XCme52VV2-17" value="PK" style="shape=partialRectangle;overflow=hidden;connectable=0;fillColor=none;top=0;left=0;bottom=0;right=0;fontStyle=1;" vertex="1" parent="-GQHMLsUSO3XCme52VV2-16">
          <mxGeometry width="30" height="30" as="geometry">
            <mxRectangle width="30" height="30" as="alternateBounds" />
          </mxGeometry>
        </mxCell>
        <mxCell id="-GQHMLsUSO3XCme52VV2-18" value="id bigInt" style="shape=partialRectangle;overflow=hidden;connectable=0;fillColor=none;top=0;left=0;bottom=0;right=0;align=left;spacingLeft=6;fontStyle=5;" vertex="1" parent="-GQHMLsUSO3XCme52VV2-16">
          <mxGeometry x="30" width="220" height="30" as="geometry">
            <mxRectangle width="220" height="30" as="alternateBounds" />
          </mxGeometry>
        </mxCell>
        <mxCell id="-GQHMLsUSO3XCme52VV2-19" value="" style="shape=partialRectangle;collapsible=0;dropTarget=0;pointerEvents=0;fillColor=none;points=[[0,0.5],[1,0.5]];portConstraint=eastwest;top=0;left=0;right=0;bottom=0;" vertex="1" parent="-GQHMLsUSO3XCme52VV2-15">
          <mxGeometry y="60" width="250" height="100" as="geometry" />
        </mxCell>
        <mxCell id="-GQHMLsUSO3XCme52VV2-20" value="" style="shape=partialRectangle;overflow=hidden;connectable=0;fillColor=none;top=0;left=0;bottom=0;right=0;" vertex="1" parent="-GQHMLsUSO3XCme52VV2-19">
          <mxGeometry width="30" height="100" as="geometry">
            <mxRectangle width="30" height="100" as="alternateBounds" />
          </mxGeometry>
        </mxCell>
        <mxCell id="-GQHMLsUSO3XCme52VV2-21" value="created_at timestamp&#xa;modified_at timestamp&#xa;display_name varchar(255)&#xa;image_url text&#xa;name varchar(255)&#xa;slug varchar(255)" style="shape=partialRectangle;overflow=hidden;connectable=0;fillColor=none;top=0;left=0;bottom=0;right=0;align=left;spacingLeft=6;" vertex="1" parent="-GQHMLsUSO3XCme52VV2-19">
          <mxGeometry x="30" width="220" height="100" as="geometry">
            <mxRectangle width="220" height="100" as="alternateBounds" />
          </mxGeometry>
        </mxCell>
        <mxCell id="-GQHMLsUSO3XCme52VV2-22" value="users" style="shape=table;startSize=30;container=1;collapsible=1;childLayout=tableLayout;fixedRows=1;rowLines=0;fontStyle=1;align=center;resizeLast=1;" vertex="1" parent="1">
          <mxGeometry x="305" y="-1150" width="250" height="160" as="geometry" />
        </mxCell>
        <mxCell id="-GQHMLsUSO3XCme52VV2-23" value="" style="shape=partialRectangle;collapsible=0;dropTarget=0;pointerEvents=0;fillColor=none;points=[[0,0.5],[1,0.5]];portConstraint=eastwest;top=0;left=0;right=0;bottom=1;" vertex="1" parent="-GQHMLsUSO3XCme52VV2-22">
          <mxGeometry y="30" width="250" height="30" as="geometry" />
        </mxCell>
        <mxCell id="-GQHMLsUSO3XCme52VV2-24" value="PK" style="shape=partialRectangle;overflow=hidden;connectable=0;fillColor=none;top=0;left=0;bottom=0;right=0;fontStyle=1;" vertex="1" parent="-GQHMLsUSO3XCme52VV2-23">
          <mxGeometry width="30" height="30" as="geometry">
            <mxRectangle width="30" height="30" as="alternateBounds" />
          </mxGeometry>
        </mxCell>
        <mxCell id="-GQHMLsUSO3XCme52VV2-25" value="id bigInt" style="shape=partialRectangle;overflow=hidden;connectable=0;fillColor=none;top=0;left=0;bottom=0;right=0;align=left;spacingLeft=6;fontStyle=5;" vertex="1" parent="-GQHMLsUSO3XCme52VV2-23">
          <mxGeometry x="30" width="220" height="30" as="geometry">
            <mxRectangle width="220" height="30" as="alternateBounds" />
          </mxGeometry>
        </mxCell>
        <mxCell id="-GQHMLsUSO3XCme52VV2-26" value="" style="shape=partialRectangle;collapsible=0;dropTarget=0;pointerEvents=0;fillColor=none;points=[[0,0.5],[1,0.5]];portConstraint=eastwest;top=0;left=0;right=0;bottom=0;" vertex="1" parent="-GQHMLsUSO3XCme52VV2-22">
          <mxGeometry y="60" width="250" height="100" as="geometry" />
        </mxCell>
        <mxCell id="-GQHMLsUSO3XCme52VV2-27" value="" style="shape=partialRectangle;overflow=hidden;connectable=0;fillColor=none;top=0;left=0;bottom=0;right=0;" vertex="1" parent="-GQHMLsUSO3XCme52VV2-26">
          <mxGeometry width="30" height="100" as="geometry">
            <mxRectangle width="30" height="100" as="alternateBounds" />
          </mxGeometry>
        </mxCell>
        <mxCell id="-GQHMLsUSO3XCme52VV2-28" value="created_at timestamp&#xa;modified_at timestamp&#xa;email varchar(255)&#xa;password varchar(255)&#xa;role varchar(255)&#xa;custom_pc_build_id bigInt" style="shape=partialRectangle;overflow=hidden;connectable=0;fillColor=none;top=0;left=0;bottom=0;right=0;align=left;spacingLeft=6;" vertex="1" parent="-GQHMLsUSO3XCme52VV2-26">
          <mxGeometry x="30" width="220" height="100" as="geometry">
            <mxRectangle width="220" height="100" as="alternateBounds" />
          </mxGeometry>
        </mxCell>
        <mxCell id="-GQHMLsUSO3XCme52VV2-29" value="custom_pc_builds" style="shape=table;startSize=30;container=1;collapsible=1;childLayout=tableLayout;fixedRows=1;rowLines=0;fontStyle=1;align=center;resizeLast=1;" vertex="1" parent="1">
          <mxGeometry x="290" y="-960" width="250" height="200" as="geometry" />
        </mxCell>
        <mxCell id="-GQHMLsUSO3XCme52VV2-30" value="" style="shape=partialRectangle;collapsible=0;dropTarget=0;pointerEvents=0;fillColor=none;points=[[0,0.5],[1,0.5]];portConstraint=eastwest;top=0;left=0;right=0;bottom=1;" vertex="1" parent="-GQHMLsUSO3XCme52VV2-29">
          <mxGeometry y="30" width="250" height="30" as="geometry" />
        </mxCell>
        <mxCell id="-GQHMLsUSO3XCme52VV2-31" value="PK" style="shape=partialRectangle;overflow=hidden;connectable=0;fillColor=none;top=0;left=0;bottom=0;right=0;fontStyle=1;" vertex="1" parent="-GQHMLsUSO3XCme52VV2-30">
          <mxGeometry width="30" height="30" as="geometry">
            <mxRectangle width="30" height="30" as="alternateBounds" />
          </mxGeometry>
        </mxCell>
        <mxCell id="-GQHMLsUSO3XCme52VV2-32" value="id bigInt" style="shape=partialRectangle;overflow=hidden;connectable=0;fillColor=none;top=0;left=0;bottom=0;right=0;align=left;spacingLeft=6;fontStyle=5;" vertex="1" parent="-GQHMLsUSO3XCme52VV2-30">
          <mxGeometry x="30" width="220" height="30" as="geometry">
            <mxRectangle width="220" height="30" as="alternateBounds" />
          </mxGeometry>
        </mxCell>
        <mxCell id="-GQHMLsUSO3XCme52VV2-33" value="" style="shape=partialRectangle;collapsible=0;dropTarget=0;pointerEvents=0;fillColor=none;points=[[0,0.5],[1,0.5]];portConstraint=eastwest;top=0;left=0;right=0;bottom=0;" vertex="1" parent="-GQHMLsUSO3XCme52VV2-29">
          <mxGeometry y="60" width="250" height="140" as="geometry" />
        </mxCell>
        <mxCell id="-GQHMLsUSO3XCme52VV2-34" value="" style="shape=partialRectangle;overflow=hidden;connectable=0;fillColor=none;top=0;left=0;bottom=0;right=0;" vertex="1" parent="-GQHMLsUSO3XCme52VV2-33">
          <mxGeometry width="30" height="140" as="geometry">
            <mxRectangle width="30" height="140" as="alternateBounds" />
          </mxGeometry>
        </mxCell>
        <mxCell id="-GQHMLsUSO3XCme52VV2-35" value="created_at timestamp&#xa;modified_at timestamp&#xa;case_id bigInt&#xa;graphics_card_id bigInt&#xa;motherboard_id bigInt&#xa;power_supply_id bigInt&#xa;processor_id bigInt&#xa;ram_ids varchar(255)&#xa;storage_ids varchar(255)" style="shape=partialRectangle;overflow=hidden;connectable=0;fillColor=none;top=0;left=0;bottom=0;right=0;align=left;spacingLeft=6;" vertex="1" parent="-GQHMLsUSO3XCme52VV2-33">
          <mxGeometry x="30" width="220" height="140" as="geometry">
            <mxRectangle width="220" height="140" as="alternateBounds" />
          </mxGeometry>
        </mxCell>
        <mxCell id="-GQHMLsUSO3XCme52VV2-36" value="store_locations" style="shape=table;startSize=30;container=1;collapsible=1;childLayout=tableLayout;fixedRows=1;rowLines=0;fontStyle=1;align=center;resizeLast=1;" vertex="1" parent="1">
          <mxGeometry x="640" y="-420" width="250" height="220" as="geometry" />
        </mxCell>
        <mxCell id="-GQHMLsUSO3XCme52VV2-37" value="" style="shape=partialRectangle;collapsible=0;dropTarget=0;pointerEvents=0;fillColor=none;points=[[0,0.5],[1,0.5]];portConstraint=eastwest;top=0;left=0;right=0;bottom=1;" vertex="1" parent="-GQHMLsUSO3XCme52VV2-36">
          <mxGeometry y="30" width="250" height="30" as="geometry" />
        </mxCell>
        <mxCell id="-GQHMLsUSO3XCme52VV2-38" value="PK" style="shape=partialRectangle;overflow=hidden;connectable=0;fillColor=none;top=0;left=0;bottom=0;right=0;fontStyle=1;" vertex="1" parent="-GQHMLsUSO3XCme52VV2-37">
          <mxGeometry width="30" height="30" as="geometry">
            <mxRectangle width="30" height="30" as="alternateBounds" />
          </mxGeometry>
        </mxCell>
        <mxCell id="-GQHMLsUSO3XCme52VV2-39" value="id bigInt" style="shape=partialRectangle;overflow=hidden;connectable=0;fillColor=none;top=0;left=0;bottom=0;right=0;align=left;spacingLeft=6;fontStyle=5;" vertex="1" parent="-GQHMLsUSO3XCme52VV2-37">
          <mxGeometry x="30" width="220" height="30" as="geometry">
            <mxRectangle width="220" height="30" as="alternateBounds" />
          </mxGeometry>
        </mxCell>
        <mxCell id="-GQHMLsUSO3XCme52VV2-40" value="" style="shape=partialRectangle;collapsible=0;dropTarget=0;pointerEvents=0;fillColor=none;points=[[0,0.5],[1,0.5]];portConstraint=eastwest;top=0;left=0;right=0;bottom=0;" vertex="1" parent="-GQHMLsUSO3XCme52VV2-36">
          <mxGeometry y="60" width="250" height="160" as="geometry" />
        </mxCell>
        <mxCell id="-GQHMLsUSO3XCme52VV2-41" value="" style="shape=partialRectangle;overflow=hidden;connectable=0;fillColor=none;top=0;left=0;bottom=0;right=0;" vertex="1" parent="-GQHMLsUSO3XCme52VV2-40">
          <mxGeometry width="30" height="160" as="geometry">
            <mxRectangle width="30" height="160" as="alternateBounds" />
          </mxGeometry>
        </mxCell>
        <mxCell id="-GQHMLsUSO3XCme52VV2-42" value="created_at timestamp&#xa;modified_at timestamp&#xa;address varchar(255)&#xa;email varchar(255)&#xa;latitude varchar(255)&#xa;longitude varchar(255)&#xa;name varchar(255)&#xa;phone varchar(255)&#xa;slug varchar(255)&#xa;store_id bigInt" style="shape=partialRectangle;overflow=hidden;connectable=0;fillColor=none;top=0;left=0;bottom=0;right=0;align=left;spacingLeft=6;" vertex="1" parent="-GQHMLsUSO3XCme52VV2-40">
          <mxGeometry x="30" width="220" height="160" as="geometry">
            <mxRectangle width="220" height="160" as="alternateBounds" />
          </mxGeometry>
        </mxCell>
        <mxCell id="-GQHMLsUSO3XCme52VV2-43" value="product_in_store_location" style="shape=table;startSize=30;container=1;collapsible=1;childLayout=tableLayout;fixedRows=1;rowLines=0;fontStyle=1;align=center;resizeLast=1;" vertex="1" parent="1">
          <mxGeometry x="640" y="-660" width="250" height="130" as="geometry" />
        </mxCell>
        <mxCell id="-GQHMLsUSO3XCme52VV2-44" value="" style="shape=partialRectangle;collapsible=0;dropTarget=0;pointerEvents=0;fillColor=none;points=[[0,0.5],[1,0.5]];portConstraint=eastwest;top=0;left=0;right=0;bottom=1;" vertex="1" parent="-GQHMLsUSO3XCme52VV2-43">
          <mxGeometry y="30" width="250" height="30" as="geometry" />
        </mxCell>
        <mxCell id="-GQHMLsUSO3XCme52VV2-45" value="PK" style="shape=partialRectangle;overflow=hidden;connectable=0;fillColor=none;top=0;left=0;bottom=0;right=0;fontStyle=1;" vertex="1" parent="-GQHMLsUSO3XCme52VV2-44">
          <mxGeometry width="30" height="30" as="geometry">
            <mxRectangle width="30" height="30" as="alternateBounds" />
          </mxGeometry>
        </mxCell>
        <mxCell id="-GQHMLsUSO3XCme52VV2-46" value="id bigInt" style="shape=partialRectangle;overflow=hidden;connectable=0;fillColor=none;top=0;left=0;bottom=0;right=0;align=left;spacingLeft=6;fontStyle=5;" vertex="1" parent="-GQHMLsUSO3XCme52VV2-44">
          <mxGeometry x="30" width="220" height="30" as="geometry">
            <mxRectangle width="220" height="30" as="alternateBounds" />
          </mxGeometry>
        </mxCell>
        <mxCell id="-GQHMLsUSO3XCme52VV2-47" value="" style="shape=partialRectangle;collapsible=0;dropTarget=0;pointerEvents=0;fillColor=none;points=[[0,0.5],[1,0.5]];portConstraint=eastwest;top=0;left=0;right=0;bottom=0;" vertex="1" parent="-GQHMLsUSO3XCme52VV2-43">
          <mxGeometry y="60" width="250" height="70" as="geometry" />
        </mxCell>
        <mxCell id="-GQHMLsUSO3XCme52VV2-48" value="" style="shape=partialRectangle;overflow=hidden;connectable=0;fillColor=none;top=0;left=0;bottom=0;right=0;" vertex="1" parent="-GQHMLsUSO3XCme52VV2-47">
          <mxGeometry width="30" height="70" as="geometry">
            <mxRectangle width="30" height="70" as="alternateBounds" />
          </mxGeometry>
        </mxCell>
        <mxCell id="-GQHMLsUSO3XCme52VV2-49" value="created_at timestamp&#xa;modified_at timestamp&#xa;product_id bigInt&#xa;store_location_id bigInt" style="shape=partialRectangle;overflow=hidden;connectable=0;fillColor=none;top=0;left=0;bottom=0;right=0;align=left;spacingLeft=6;" vertex="1" parent="-GQHMLsUSO3XCme52VV2-47">
          <mxGeometry x="30" width="220" height="70" as="geometry">
            <mxRectangle width="220" height="70" as="alternateBounds" />
          </mxGeometry>
        </mxCell>
        <mxCell id="-GQHMLsUSO3XCme52VV2-50" value="product_price_history" style="shape=table;startSize=30;container=1;collapsible=1;childLayout=tableLayout;fixedRows=1;rowLines=0;fontStyle=1;align=center;resizeLast=1;" vertex="1" parent="1">
          <mxGeometry x="630" y="-880" width="250" height="130" as="geometry" />
        </mxCell>
        <mxCell id="-GQHMLsUSO3XCme52VV2-51" value="" style="shape=partialRectangle;collapsible=0;dropTarget=0;pointerEvents=0;fillColor=none;points=[[0,0.5],[1,0.5]];portConstraint=eastwest;top=0;left=0;right=0;bottom=1;" vertex="1" parent="-GQHMLsUSO3XCme52VV2-50">
          <mxGeometry y="30" width="250" height="30" as="geometry" />
        </mxCell>
        <mxCell id="-GQHMLsUSO3XCme52VV2-52" value="PK" style="shape=partialRectangle;overflow=hidden;connectable=0;fillColor=none;top=0;left=0;bottom=0;right=0;fontStyle=1;" vertex="1" parent="-GQHMLsUSO3XCme52VV2-51">
          <mxGeometry width="30" height="30" as="geometry">
            <mxRectangle width="30" height="30" as="alternateBounds" />
          </mxGeometry>
        </mxCell>
        <mxCell id="-GQHMLsUSO3XCme52VV2-53" value="id bigInt" style="shape=partialRectangle;overflow=hidden;connectable=0;fillColor=none;top=0;left=0;bottom=0;right=0;align=left;spacingLeft=6;fontStyle=5;" vertex="1" parent="-GQHMLsUSO3XCme52VV2-51">
          <mxGeometry x="30" width="220" height="30" as="geometry">
            <mxRectangle width="220" height="30" as="alternateBounds" />
          </mxGeometry>
        </mxCell>
        <mxCell id="-GQHMLsUSO3XCme52VV2-54" value="" style="shape=partialRectangle;collapsible=0;dropTarget=0;pointerEvents=0;fillColor=none;points=[[0,0.5],[1,0.5]];portConstraint=eastwest;top=0;left=0;right=0;bottom=0;" vertex="1" parent="-GQHMLsUSO3XCme52VV2-50">
          <mxGeometry y="60" width="250" height="70" as="geometry" />
        </mxCell>
        <mxCell id="-GQHMLsUSO3XCme52VV2-55" value="" style="shape=partialRectangle;overflow=hidden;connectable=0;fillColor=none;top=0;left=0;bottom=0;right=0;" vertex="1" parent="-GQHMLsUSO3XCme52VV2-54">
          <mxGeometry width="30" height="70" as="geometry">
            <mxRectangle width="30" height="70" as="alternateBounds" />
          </mxGeometry>
        </mxCell>
        <mxCell id="-GQHMLsUSO3XCme52VV2-56" value="created_at timestamp&#xa;modified_at timestamp&#xa;price float&#xa;product_id bigInt" style="shape=partialRectangle;overflow=hidden;connectable=0;fillColor=none;top=0;left=0;bottom=0;right=0;align=left;spacingLeft=6;" vertex="1" parent="-GQHMLsUSO3XCme52VV2-54">
          <mxGeometry x="30" width="220" height="70" as="geometry">
            <mxRectangle width="220" height="70" as="alternateBounds" />
          </mxGeometry>
        </mxCell>
        <mxCell id="-GQHMLsUSO3XCme52VV2-57" value="forum_post" style="shape=table;startSize=30;container=1;collapsible=1;childLayout=tableLayout;fixedRows=1;rowLines=0;fontStyle=1;align=center;resizeLast=1;" vertex="1" parent="1">
          <mxGeometry x="5" y="-1360" width="250" height="140" as="geometry" />
        </mxCell>
        <mxCell id="-GQHMLsUSO3XCme52VV2-58" value="" style="shape=partialRectangle;collapsible=0;dropTarget=0;pointerEvents=0;fillColor=none;points=[[0,0.5],[1,0.5]];portConstraint=eastwest;top=0;left=0;right=0;bottom=1;" vertex="1" parent="-GQHMLsUSO3XCme52VV2-57">
          <mxGeometry y="30" width="250" height="30" as="geometry" />
        </mxCell>
        <mxCell id="-GQHMLsUSO3XCme52VV2-59" value="PK" style="shape=partialRectangle;overflow=hidden;connectable=0;fillColor=none;top=0;left=0;bottom=0;right=0;fontStyle=1;" vertex="1" parent="-GQHMLsUSO3XCme52VV2-58">
          <mxGeometry width="30" height="30" as="geometry">
            <mxRectangle width="30" height="30" as="alternateBounds" />
          </mxGeometry>
        </mxCell>
        <mxCell id="-GQHMLsUSO3XCme52VV2-60" value="id bigInt" style="shape=partialRectangle;overflow=hidden;connectable=0;fillColor=none;top=0;left=0;bottom=0;right=0;align=left;spacingLeft=6;fontStyle=5;" vertex="1" parent="-GQHMLsUSO3XCme52VV2-58">
          <mxGeometry x="30" width="220" height="30" as="geometry">
            <mxRectangle width="220" height="30" as="alternateBounds" />
          </mxGeometry>
        </mxCell>
        <mxCell id="-GQHMLsUSO3XCme52VV2-61" value="" style="shape=partialRectangle;collapsible=0;dropTarget=0;pointerEvents=0;fillColor=none;points=[[0,0.5],[1,0.5]];portConstraint=eastwest;top=0;left=0;right=0;bottom=0;" vertex="1" parent="-GQHMLsUSO3XCme52VV2-57">
          <mxGeometry y="60" width="250" height="80" as="geometry" />
        </mxCell>
        <mxCell id="-GQHMLsUSO3XCme52VV2-62" value="" style="shape=partialRectangle;overflow=hidden;connectable=0;fillColor=none;top=0;left=0;bottom=0;right=0;" vertex="1" parent="-GQHMLsUSO3XCme52VV2-61">
          <mxGeometry width="30" height="80" as="geometry">
            <mxRectangle width="30" height="80" as="alternateBounds" />
          </mxGeometry>
        </mxCell>
        <mxCell id="-GQHMLsUSO3XCme52VV2-63" value="created_at timestamp&#xa;modified_at timestamp&#xa;text text&#xa;title varchar(255)&#xa;user_id bigInt" style="shape=partialRectangle;overflow=hidden;connectable=0;fillColor=none;top=0;left=0;bottom=0;right=0;align=left;spacingLeft=6;" vertex="1" parent="-GQHMLsUSO3XCme52VV2-61">
          <mxGeometry x="30" width="220" height="80" as="geometry">
            <mxRectangle width="220" height="80" as="alternateBounds" />
          </mxGeometry>
        </mxCell>
        <mxCell id="-GQHMLsUSO3XCme52VV2-64" value="forum_comment" style="shape=table;startSize=30;container=1;collapsible=1;childLayout=tableLayout;fixedRows=1;rowLines=0;fontStyle=1;align=center;resizeLast=1;" vertex="1" parent="1">
          <mxGeometry x="305" y="-1360" width="250" height="140" as="geometry" />
        </mxCell>
        <mxCell id="-GQHMLsUSO3XCme52VV2-65" value="" style="shape=partialRectangle;collapsible=0;dropTarget=0;pointerEvents=0;fillColor=none;points=[[0,0.5],[1,0.5]];portConstraint=eastwest;top=0;left=0;right=0;bottom=1;" vertex="1" parent="-GQHMLsUSO3XCme52VV2-64">
          <mxGeometry y="30" width="250" height="30" as="geometry" />
        </mxCell>
        <mxCell id="-GQHMLsUSO3XCme52VV2-66" value="PK" style="shape=partialRectangle;overflow=hidden;connectable=0;fillColor=none;top=0;left=0;bottom=0;right=0;fontStyle=1;" vertex="1" parent="-GQHMLsUSO3XCme52VV2-65">
          <mxGeometry width="30" height="30" as="geometry">
            <mxRectangle width="30" height="30" as="alternateBounds" />
          </mxGeometry>
        </mxCell>
        <mxCell id="-GQHMLsUSO3XCme52VV2-67" value="id bigInt" style="shape=partialRectangle;overflow=hidden;connectable=0;fillColor=none;top=0;left=0;bottom=0;right=0;align=left;spacingLeft=6;fontStyle=5;" vertex="1" parent="-GQHMLsUSO3XCme52VV2-65">
          <mxGeometry x="30" width="220" height="30" as="geometry">
            <mxRectangle width="220" height="30" as="alternateBounds" />
          </mxGeometry>
        </mxCell>
        <mxCell id="-GQHMLsUSO3XCme52VV2-68" value="" style="shape=partialRectangle;collapsible=0;dropTarget=0;pointerEvents=0;fillColor=none;points=[[0,0.5],[1,0.5]];portConstraint=eastwest;top=0;left=0;right=0;bottom=0;" vertex="1" parent="-GQHMLsUSO3XCme52VV2-64">
          <mxGeometry y="60" width="250" height="80" as="geometry" />
        </mxCell>
        <mxCell id="-GQHMLsUSO3XCme52VV2-69" value="" style="shape=partialRectangle;overflow=hidden;connectable=0;fillColor=none;top=0;left=0;bottom=0;right=0;" vertex="1" parent="-GQHMLsUSO3XCme52VV2-68">
          <mxGeometry width="30" height="80" as="geometry">
            <mxRectangle width="30" height="80" as="alternateBounds" />
          </mxGeometry>
        </mxCell>
        <mxCell id="-GQHMLsUSO3XCme52VV2-70" value="created_at timestamp&#xa;modified_at timestamp&#xa;text text&#xa;forum_post_id bigInt&#xa;user_id bigInt" style="shape=partialRectangle;overflow=hidden;connectable=0;fillColor=none;top=0;left=0;bottom=0;right=0;align=left;spacingLeft=6;" vertex="1" parent="-GQHMLsUSO3XCme52VV2-68">
          <mxGeometry x="30" width="220" height="80" as="geometry">
            <mxRectangle width="220" height="80" as="alternateBounds" />
          </mxGeometry>
        </mxCell>
        <mxCell id="-GQHMLsUSO3XCme52VV2-71" value="forum_comment_vote" style="shape=table;startSize=30;container=1;collapsible=1;childLayout=tableLayout;fixedRows=1;rowLines=0;fontStyle=1;align=center;resizeLast=1;" vertex="1" parent="1">
          <mxGeometry x="595" y="-1360" width="250" height="140" as="geometry" />
        </mxCell>
        <mxCell id="-GQHMLsUSO3XCme52VV2-72" value="" style="shape=partialRectangle;collapsible=0;dropTarget=0;pointerEvents=0;fillColor=none;points=[[0,0.5],[1,0.5]];portConstraint=eastwest;top=0;left=0;right=0;bottom=1;" vertex="1" parent="-GQHMLsUSO3XCme52VV2-71">
          <mxGeometry y="30" width="250" height="30" as="geometry" />
        </mxCell>
        <mxCell id="-GQHMLsUSO3XCme52VV2-73" value="PK" style="shape=partialRectangle;overflow=hidden;connectable=0;fillColor=none;top=0;left=0;bottom=0;right=0;fontStyle=1;" vertex="1" parent="-GQHMLsUSO3XCme52VV2-72">
          <mxGeometry width="30" height="30" as="geometry">
            <mxRectangle width="30" height="30" as="alternateBounds" />
          </mxGeometry>
        </mxCell>
        <mxCell id="-GQHMLsUSO3XCme52VV2-74" value="id bigInt" style="shape=partialRectangle;overflow=hidden;connectable=0;fillColor=none;top=0;left=0;bottom=0;right=0;align=left;spacingLeft=6;fontStyle=5;" vertex="1" parent="-GQHMLsUSO3XCme52VV2-72">
          <mxGeometry x="30" width="220" height="30" as="geometry">
            <mxRectangle width="220" height="30" as="alternateBounds" />
          </mxGeometry>
        </mxCell>
        <mxCell id="-GQHMLsUSO3XCme52VV2-75" value="" style="shape=partialRectangle;collapsible=0;dropTarget=0;pointerEvents=0;fillColor=none;points=[[0,0.5],[1,0.5]];portConstraint=eastwest;top=0;left=0;right=0;bottom=0;" vertex="1" parent="-GQHMLsUSO3XCme52VV2-71">
          <mxGeometry y="60" width="250" height="80" as="geometry" />
        </mxCell>
        <mxCell id="-GQHMLsUSO3XCme52VV2-76" value="" style="shape=partialRectangle;overflow=hidden;connectable=0;fillColor=none;top=0;left=0;bottom=0;right=0;" vertex="1" parent="-GQHMLsUSO3XCme52VV2-75">
          <mxGeometry width="30" height="80" as="geometry">
            <mxRectangle width="30" height="80" as="alternateBounds" />
          </mxGeometry>
        </mxCell>
        <mxCell id="-GQHMLsUSO3XCme52VV2-77" value="created_at timestamp&#xa;modified_at timestamp&#xa;is_positive bool&#xa;forum_comment_id bigInt&#xa;user_id bigInt" style="shape=partialRectangle;overflow=hidden;connectable=0;fillColor=none;top=0;left=0;bottom=0;right=0;align=left;spacingLeft=6;" vertex="1" parent="-GQHMLsUSO3XCme52VV2-75">
          <mxGeometry x="30" width="220" height="80" as="geometry">
            <mxRectangle width="220" height="80" as="alternateBounds" />
          </mxGeometry>
        </mxCell>
        <mxCell id="-GQHMLsUSO3XCme52VV2-81" value="" style="endArrow=none;html=1;rounded=0;exitX=1;exitY=0;exitDx=0;exitDy=0;" edge="1" parent="1" source="-GQHMLsUSO3XCme52VV2-1" target="fmhWpOc4DuvUItG6NyJw-41">
          <mxGeometry relative="1" as="geometry">
            <mxPoint x="400" y="-450" as="sourcePoint" />
            <mxPoint x="560" y="-450" as="targetPoint" />
          </mxGeometry>
        </mxCell>
        <mxCell id="-GQHMLsUSO3XCme52VV2-82" value="" style="endArrow=none;html=1;rounded=0;exitX=0.5;exitY=0;exitDx=0;exitDy=0;entryX=0.476;entryY=1.017;entryDx=0;entryDy=0;entryPerimeter=0;" edge="1" parent="1" source="-GQHMLsUSO3XCme52VV2-15" target="fmhWpOc4DuvUItG6NyJw-41">
          <mxGeometry relative="1" as="geometry">
            <mxPoint x="400" y="-450" as="sourcePoint" />
            <mxPoint x="560" y="-450" as="targetPoint" />
          </mxGeometry>
        </mxCell>
        <mxCell id="-GQHMLsUSO3XCme52VV2-83" value="" style="endArrow=none;html=1;rounded=0;entryX=0;entryY=0.5;entryDx=0;entryDy=0;exitX=1;exitY=0.5;exitDx=0;exitDy=0;" edge="1" parent="1" source="-GQHMLsUSO3XCme52VV2-19" target="-GQHMLsUSO3XCme52VV2-40">
          <mxGeometry relative="1" as="geometry">
            <mxPoint x="400" y="-450" as="sourcePoint" />
            <mxPoint x="560" y="-450" as="targetPoint" />
          </mxGeometry>
        </mxCell>
        <mxCell id="-GQHMLsUSO3XCme52VV2-84" value="" style="endArrow=none;html=1;rounded=0;exitX=1;exitY=0.5;exitDx=0;exitDy=0;" edge="1" parent="1" source="-GQHMLsUSO3XCme52VV2-12" target="fmhWpOc4DuvUItG6NyJw-41">
          <mxGeometry relative="1" as="geometry">
            <mxPoint x="400" y="-450" as="sourcePoint" />
            <mxPoint x="560" y="-450" as="targetPoint" />
          </mxGeometry>
        </mxCell>
        <mxCell id="-GQHMLsUSO3XCme52VV2-85" value="" style="endArrow=none;html=1;rounded=0;entryX=0.5;entryY=0;entryDx=0;entryDy=0;" edge="1" parent="1" source="-GQHMLsUSO3XCme52VV2-47" target="-GQHMLsUSO3XCme52VV2-36">
          <mxGeometry relative="1" as="geometry">
            <mxPoint x="400" y="-450" as="sourcePoint" />
            <mxPoint x="560" y="-450" as="targetPoint" />
          </mxGeometry>
        </mxCell>
        <mxCell id="-GQHMLsUSO3XCme52VV2-86" value="" style="endArrow=none;html=1;rounded=0;entryX=1;entryY=0.5;entryDx=0;entryDy=0;exitX=0;exitY=0.5;exitDx=0;exitDy=0;" edge="1" parent="1" source="-GQHMLsUSO3XCme52VV2-47" target="fmhWpOc4DuvUItG6NyJw-41">
          <mxGeometry relative="1" as="geometry">
            <mxPoint x="400" y="-450" as="sourcePoint" />
            <mxPoint x="560" y="-450" as="targetPoint" />
          </mxGeometry>
        </mxCell>
        <mxCell id="-GQHMLsUSO3XCme52VV2-87" value="" style="endArrow=none;html=1;rounded=0;entryX=1;entryY=0;entryDx=0;entryDy=0;exitX=0;exitY=0.5;exitDx=0;exitDy=0;" edge="1" parent="1" source="-GQHMLsUSO3XCme52VV2-54" target="fmhWpOc4DuvUItG6NyJw-37">
          <mxGeometry relative="1" as="geometry">
            <mxPoint x="400" y="-450" as="sourcePoint" />
            <mxPoint x="560" y="-450" as="targetPoint" />
          </mxGeometry>
        </mxCell>
        <mxCell id="-GQHMLsUSO3XCme52VV2-88" value="" style="endArrow=none;html=1;rounded=0;exitX=0;exitY=0;exitDx=0;exitDy=0;" edge="1" parent="1" source="fmhWpOc4DuvUItG6NyJw-37" target="-GQHMLsUSO3XCme52VV2-33">
          <mxGeometry relative="1" as="geometry">
            <mxPoint x="400" y="-850" as="sourcePoint" />
            <mxPoint x="560" y="-850" as="targetPoint" />
          </mxGeometry>
        </mxCell>
        <mxCell id="-GQHMLsUSO3XCme52VV2-89" value="" style="endArrow=none;html=1;rounded=0;exitX=0;exitY=0;exitDx=0;exitDy=0;" edge="1" parent="1">
          <mxGeometry relative="1" as="geometry">
            <mxPoint x="310" y="-730" as="sourcePoint" />
            <mxPoint x="348" y="-760" as="targetPoint" />
          </mxGeometry>
        </mxCell>
        <mxCell id="-GQHMLsUSO3XCme52VV2-90" value="" style="endArrow=none;html=1;rounded=0;exitX=0;exitY=0;exitDx=0;exitDy=0;" edge="1" parent="1">
          <mxGeometry relative="1" as="geometry">
            <mxPoint x="340" y="-730" as="sourcePoint" />
            <mxPoint x="378" y="-760" as="targetPoint" />
          </mxGeometry>
        </mxCell>
        <mxCell id="-GQHMLsUSO3XCme52VV2-91" value="" style="endArrow=none;html=1;rounded=0;exitX=0;exitY=0;exitDx=0;exitDy=0;" edge="1" parent="1">
          <mxGeometry relative="1" as="geometry">
            <mxPoint x="370" y="-730" as="sourcePoint" />
            <mxPoint x="408" y="-760" as="targetPoint" />
          </mxGeometry>
        </mxCell>
        <mxCell id="-GQHMLsUSO3XCme52VV2-92" value="" style="endArrow=none;html=1;rounded=0;exitX=0;exitY=0;exitDx=0;exitDy=0;" edge="1" parent="1">
          <mxGeometry relative="1" as="geometry">
            <mxPoint x="400" y="-730" as="sourcePoint" />
            <mxPoint x="438" y="-760" as="targetPoint" />
          </mxGeometry>
        </mxCell>
        <mxCell id="-GQHMLsUSO3XCme52VV2-93" value="" style="endArrow=none;html=1;rounded=0;exitX=0.5;exitY=0;exitDx=0;exitDy=0;" edge="1" parent="1" source="-GQHMLsUSO3XCme52VV2-29" target="-GQHMLsUSO3XCme52VV2-26">
          <mxGeometry relative="1" as="geometry">
            <mxPoint x="400" y="-1150" as="sourcePoint" />
            <mxPoint x="560" y="-1150" as="targetPoint" />
          </mxGeometry>
        </mxCell>
        <mxCell id="-GQHMLsUSO3XCme52VV2-94" value="" style="endArrow=none;html=1;rounded=0;exitX=0;exitY=0;exitDx=0;exitDy=0;" edge="1" parent="1" source="-GQHMLsUSO3XCme52VV2-22" target="-GQHMLsUSO3XCme52VV2-61">
          <mxGeometry relative="1" as="geometry">
            <mxPoint x="400" y="-1050" as="sourcePoint" />
            <mxPoint x="560" y="-1050" as="targetPoint" />
          </mxGeometry>
        </mxCell>
        <mxCell id="-GQHMLsUSO3XCme52VV2-95" value="" style="endArrow=none;html=1;rounded=0;entryX=0.5;entryY=0;entryDx=0;entryDy=0;" edge="1" parent="1" source="-GQHMLsUSO3XCme52VV2-68" target="-GQHMLsUSO3XCme52VV2-22">
          <mxGeometry relative="1" as="geometry">
            <mxPoint x="400" y="-1050" as="sourcePoint" />
            <mxPoint x="560" y="-1050" as="targetPoint" />
          </mxGeometry>
        </mxCell>
        <mxCell id="-GQHMLsUSO3XCme52VV2-96" value="" style="endArrow=none;html=1;rounded=0;entryX=1;entryY=0;entryDx=0;entryDy=0;" edge="1" parent="1" source="-GQHMLsUSO3XCme52VV2-75" target="-GQHMLsUSO3XCme52VV2-22">
          <mxGeometry relative="1" as="geometry">
            <mxPoint x="400" y="-1050" as="sourcePoint" />
            <mxPoint x="560" y="-1050" as="targetPoint" />
          </mxGeometry>
        </mxCell>
        <mxCell id="-GQHMLsUSO3XCme52VV2-97" value="" style="endArrow=none;html=1;rounded=0;exitX=1;exitY=0.5;exitDx=0;exitDy=0;" edge="1" parent="1" source="-GQHMLsUSO3XCme52VV2-61" target="-GQHMLsUSO3XCme52VV2-68">
          <mxGeometry relative="1" as="geometry">
            <mxPoint x="400" y="-1050" as="sourcePoint" />
            <mxPoint x="560" y="-1050" as="targetPoint" />
          </mxGeometry>
        </mxCell>
        <mxCell id="-GQHMLsUSO3XCme52VV2-98" value="" style="endArrow=none;html=1;rounded=0;" edge="1" parent="1" source="-GQHMLsUSO3XCme52VV2-68" target="-GQHMLsUSO3XCme52VV2-75">
          <mxGeometry relative="1" as="geometry">
            <mxPoint x="400" y="-1050" as="sourcePoint" />
            <mxPoint x="560" y="-1050" as="targetPoint" />
          </mxGeometry>
        </mxCell>
        <mxCell id="-GQHMLsUSO3XCme52VV2-101" value="&lt;b&gt;N&lt;/b&gt;" style="text;html=1;align=center;verticalAlign=middle;resizable=0;points=[];autosize=1;strokeColor=none;fillColor=none;" vertex="1" parent="1">
          <mxGeometry x="290" y="-440" width="30" height="30" as="geometry" />
        </mxCell>
        <mxCell id="-GQHMLsUSO3XCme52VV2-102" value="&lt;b&gt;N&lt;/b&gt;" style="text;html=1;align=center;verticalAlign=middle;resizable=0;points=[];autosize=1;strokeColor=none;fillColor=none;" vertex="1" parent="1">
          <mxGeometry x="410" y="-440" width="30" height="30" as="geometry" />
        </mxCell>
        <mxCell id="-GQHMLsUSO3XCme52VV2-103" value="&lt;b&gt;N&lt;/b&gt;" style="text;html=1;align=center;verticalAlign=middle;resizable=0;points=[];autosize=1;strokeColor=none;fillColor=none;" vertex="1" parent="1">
          <mxGeometry x="610" y="-310" width="30" height="30" as="geometry" />
        </mxCell>
        <mxCell id="-GQHMLsUSO3XCme52VV2-104" value="&lt;b&gt;N&lt;/b&gt;" style="text;html=1;align=center;verticalAlign=middle;resizable=0;points=[];autosize=1;strokeColor=none;fillColor=none;" vertex="1" parent="1">
          <mxGeometry x="770" y="-530" width="30" height="30" as="geometry" />
        </mxCell>
        <mxCell id="-GQHMLsUSO3XCme52VV2-105" value="&lt;b&gt;N&lt;/b&gt;" style="text;html=1;align=center;verticalAlign=middle;resizable=0;points=[];autosize=1;strokeColor=none;fillColor=none;" vertex="1" parent="1">
          <mxGeometry x="610" y="-590" width="30" height="30" as="geometry" />
        </mxCell>
        <mxCell id="-GQHMLsUSO3XCme52VV2-106" value="&lt;b&gt;N&lt;/b&gt;" style="text;html=1;align=center;verticalAlign=middle;resizable=0;points=[];autosize=1;strokeColor=none;fillColor=none;" vertex="1" parent="1">
          <mxGeometry x="600" y="-800" width="30" height="30" as="geometry" />
        </mxCell>
        <mxCell id="-GQHMLsUSO3XCme52VV2-107" value="&lt;b&gt;1&lt;/b&gt;" style="text;html=1;align=center;verticalAlign=middle;resizable=0;points=[];autosize=1;strokeColor=none;fillColor=none;" vertex="1" parent="1">
          <mxGeometry x="210" y="-380" width="30" height="30" as="geometry" />
        </mxCell>
        <mxCell id="-GQHMLsUSO3XCme52VV2-108" value="&lt;b&gt;1&lt;/b&gt;" style="text;html=1;align=center;verticalAlign=middle;resizable=0;points=[];autosize=1;strokeColor=none;fillColor=none;" vertex="1" parent="1">
          <mxGeometry x="380" y="-380" width="30" height="30" as="geometry" />
        </mxCell>
        <mxCell id="-GQHMLsUSO3XCme52VV2-109" value="&lt;b&gt;1&lt;/b&gt;" style="text;html=1;align=center;verticalAlign=middle;resizable=0;points=[];autosize=1;strokeColor=none;fillColor=none;" vertex="1" parent="1">
          <mxGeometry x="525" y="-280" width="30" height="30" as="geometry" />
        </mxCell>
        <mxCell id="-GQHMLsUSO3XCme52VV2-110" value="&lt;b&gt;1&lt;/b&gt;" style="text;html=1;align=center;verticalAlign=middle;resizable=0;points=[];autosize=1;strokeColor=none;fillColor=none;" vertex="1" parent="1">
          <mxGeometry x="740" y="-440" width="30" height="30" as="geometry" />
        </mxCell>
        <mxCell id="-GQHMLsUSO3XCme52VV2-111" value="&lt;b&gt;1&lt;/b&gt;" style="text;html=1;align=center;verticalAlign=middle;resizable=0;points=[];autosize=1;strokeColor=none;fillColor=none;" vertex="1" parent="1">
          <mxGeometry x="540" y="-740" width="30" height="30" as="geometry" />
        </mxCell>
        <mxCell id="-GQHMLsUSO3XCme52VV2-112" value="&lt;b&gt;N&lt;/b&gt;" style="text;html=1;align=center;verticalAlign=middle;resizable=0;points=[];autosize=1;strokeColor=none;fillColor=none;" vertex="1" parent="1">
          <mxGeometry x="370" y="-770" width="30" height="30" as="geometry" />
        </mxCell>
        <mxCell id="-GQHMLsUSO3XCme52VV2-113" value="&lt;b&gt;1&lt;/b&gt;" style="text;html=1;align=center;verticalAlign=middle;resizable=0;points=[];autosize=1;strokeColor=none;fillColor=none;" vertex="1" parent="1">
          <mxGeometry x="370" y="-750" width="30" height="30" as="geometry" />
        </mxCell>
        <mxCell id="-GQHMLsUSO3XCme52VV2-116" value="&lt;b&gt;1&lt;/b&gt;" style="text;html=1;align=center;verticalAlign=middle;resizable=0;points=[];autosize=1;strokeColor=none;fillColor=none;" vertex="1" parent="1">
          <mxGeometry x="260" y="-550" width="30" height="30" as="geometry" />
        </mxCell>
        <mxCell id="-GQHMLsUSO3XCme52VV2-117" value="&lt;b&gt;1&lt;/b&gt;" style="text;html=1;align=center;verticalAlign=middle;resizable=0;points=[];autosize=1;strokeColor=none;fillColor=none;" vertex="1" parent="1">
          <mxGeometry x="225" y="-540" width="30" height="30" as="geometry" />
        </mxCell>
        <mxCell id="-GQHMLsUSO3XCme52VV2-118" value="&lt;b&gt;1&lt;/b&gt;" style="text;html=1;align=center;verticalAlign=middle;resizable=0;points=[];autosize=1;strokeColor=none;fillColor=none;" vertex="1" parent="1">
          <mxGeometry x="530" y="-580" width="30" height="30" as="geometry" />
        </mxCell>
        <mxCell id="-GQHMLsUSO3XCme52VV2-119" value="&lt;b&gt;1&lt;/b&gt;" style="text;html=1;align=center;verticalAlign=middle;resizable=0;points=[];autosize=1;strokeColor=none;fillColor=none;" vertex="1" parent="1">
          <mxGeometry x="415" y="-990" width="30" height="30" as="geometry" />
        </mxCell>
        <mxCell id="-GQHMLsUSO3XCme52VV2-120" value="&lt;b&gt;1&lt;/b&gt;" style="text;html=1;align=center;verticalAlign=middle;resizable=0;points=[];autosize=1;strokeColor=none;fillColor=none;" vertex="1" parent="1">
          <mxGeometry x="395" y="-980" width="30" height="30" as="geometry" />
        </mxCell>
        <mxCell id="-GQHMLsUSO3XCme52VV2-121" value="&lt;b&gt;1&lt;/b&gt;" style="text;html=1;align=center;verticalAlign=middle;resizable=0;points=[];autosize=1;strokeColor=none;fillColor=none;" vertex="1" parent="1">
          <mxGeometry x="170" y="-1220" width="30" height="30" as="geometry" />
        </mxCell>
        <mxCell id="-GQHMLsUSO3XCme52VV2-122" value="&lt;b&gt;1&lt;/b&gt;" style="text;html=1;align=center;verticalAlign=middle;resizable=0;points=[];autosize=1;strokeColor=none;fillColor=none;" vertex="1" parent="1">
          <mxGeometry x="250" y="-1290" width="30" height="30" as="geometry" />
        </mxCell>
        <mxCell id="-GQHMLsUSO3XCme52VV2-123" value="&lt;b&gt;1&lt;/b&gt;" style="text;html=1;align=center;verticalAlign=middle;resizable=0;points=[];autosize=1;strokeColor=none;fillColor=none;" vertex="1" parent="1">
          <mxGeometry x="550" y="-1290" width="30" height="30" as="geometry" />
        </mxCell>
        <mxCell id="-GQHMLsUSO3XCme52VV2-124" value="&lt;b&gt;1&lt;/b&gt;" style="text;html=1;align=center;verticalAlign=middle;resizable=0;points=[];autosize=1;strokeColor=none;fillColor=none;" vertex="1" parent="1">
          <mxGeometry x="555" y="-1160" width="30" height="30" as="geometry" />
        </mxCell>
        <mxCell id="-GQHMLsUSO3XCme52VV2-125" value="&lt;b&gt;1&lt;/b&gt;" style="text;html=1;align=center;verticalAlign=middle;resizable=0;points=[];autosize=1;strokeColor=none;fillColor=none;" vertex="1" parent="1">
          <mxGeometry x="430" y="-1180" width="30" height="30" as="geometry" />
        </mxCell>
        <mxCell id="-GQHMLsUSO3XCme52VV2-127" value="&lt;b&gt;N&lt;/b&gt;" style="text;html=1;align=center;verticalAlign=middle;resizable=0;points=[];autosize=1;strokeColor=none;fillColor=none;" vertex="1" parent="1">
          <mxGeometry x="275" y="-1150" width="30" height="30" as="geometry" />
        </mxCell>
        <mxCell id="-GQHMLsUSO3XCme52VV2-128" value="&lt;b&gt;N&lt;/b&gt;" style="text;html=1;align=center;verticalAlign=middle;resizable=0;points=[];autosize=1;strokeColor=none;fillColor=none;" vertex="1" parent="1">
          <mxGeometry x="275" y="-1260" width="30" height="30" as="geometry" />
        </mxCell>
        <mxCell id="-GQHMLsUSO3XCme52VV2-129" value="&lt;b&gt;N&lt;/b&gt;" style="text;html=1;align=center;verticalAlign=middle;resizable=0;points=[];autosize=1;strokeColor=none;fillColor=none;" vertex="1" parent="1">
          <mxGeometry x="400" y="-1220" width="30" height="30" as="geometry" />
        </mxCell>
        <mxCell id="-GQHMLsUSO3XCme52VV2-130" value="&lt;b&gt;N&lt;/b&gt;" style="text;html=1;align=center;verticalAlign=middle;resizable=0;points=[];autosize=1;strokeColor=none;fillColor=none;" vertex="1" parent="1">
          <mxGeometry x="650" y="-1220" width="30" height="30" as="geometry" />
        </mxCell>
        <mxCell id="-GQHMLsUSO3XCme52VV2-131" value="&lt;b&gt;N&lt;/b&gt;" style="text;html=1;align=center;verticalAlign=middle;resizable=0;points=[];autosize=1;strokeColor=none;fillColor=none;" vertex="1" parent="1">
          <mxGeometry x="570" y="-1260" width="30" height="30" as="geometry" />
        </mxCell>
      </root>
    </mxGraphModel>
  </diagram>
</mxfile>
